<svg width="24" height="26" viewBox="0 0 24 26" fill="none" xmlns="http://www.w3.org/2000/svg">
<path d="M11 2.42285H9C4 2.42285 2 4.49331 2 9.66946V15.8808C2 21.057 4 23.1275 9 23.1275H15C20 23.1275 22 21.057 22 15.8808V13.8104" stroke="#0071E3" stroke-width="1.5" stroke-linecap="round" stroke-linejoin="round"/>
<path d="M16.04 3.4791L8.16 11.6367C7.86 11.9473 7.56 12.5581 7.5 13.0032L7.07 16.1193C6.91 17.2477 7.68 18.0344 8.77 17.8792L11.78 17.434C12.2 17.3719 12.79 17.0613 13.1 16.7508L20.98 8.59314C22.34 7.18523 22.98 5.54956 20.98 3.4791C18.98 1.40864 17.4 2.07119 16.04 3.4791V3.4791Z" stroke="#0071E3" stroke-width="1.5" stroke-miterlimit="10" stroke-linecap="round" stroke-linejoin="round"/>
<path d="M14.91 4.64893C15.2416 5.86788 15.87 6.97826 16.735 7.87372C17.6 8.76917 18.6726 9.41969 19.85 9.76296" stroke="#0071E3" stroke-width="1.5" stroke-miterlimit="10" stroke-linecap="round" stroke-linejoin="round"/>
</svg>
