<svg width="36" height="36" viewBox="0 0 36 36" fill="none" xmlns="http://www.w3.org/2000/svg">
<path d="M18.03 4.36499C13.065 4.36499 9.03001 8.39999 9.03001 13.365V17.7C9.03001 18.615 8.64001 20.01 8.17501 20.79L6.45001 23.655C5.38501 25.425 6.12001 27.39 8.07001 28.05C14.535 30.21 21.51 30.21 27.975 28.05C29.79 27.45 30.585 25.305 29.595 23.655L27.87 20.79C27.42 20.01 27.03 18.615 27.03 17.7V13.365C27.03 8.41499 22.98 4.36499 18.03 4.36499Z" stroke="#323232" stroke-width="1.5" stroke-miterlimit="10" stroke-linecap="round"/>
<path d="M20.805 4.79991C18.9911 4.2833 17.0689 4.2833 15.255 4.79991C15.69 3.68991 16.77 2.90991 18.03 2.90991C19.29 2.90991 20.37 3.68991 20.805 4.79991V4.79991Z" stroke="#323232" stroke-width="1.5" stroke-miterlimit="10" stroke-linecap="round" stroke-linejoin="round"/>
<path d="M22.7143 29.1428C22.7143 31.6178 20.6893 33.6428 18.2143 33.6428C16.9843 33.6428 15.8443 33.1328 15.0343 32.3228C14.1915 31.4788 13.717 30.3356 13.7143 29.1428" stroke="#323232" stroke-width="1.5" stroke-miterlimit="10"/>
</svg>
