<svg width="34" height="34" viewBox="0 0 34 34" fill="none" xmlns="http://www.w3.org/2000/svg">
<path d="M29.1691 31.1666C29.1691 25.6841 23.715 21.2499 17 21.2499C10.285 21.2499 4.83081 25.6841 4.83081 31.1666M17 16.9999C18.8786 16.9999 20.6803 16.2536 22.0086 14.9253C23.337 13.5969 24.0833 11.7952 24.0833 9.91659C24.0833 8.03797 23.337 6.2363 22.0086 4.90791C20.6803 3.57953 18.8786 2.83325 17 2.83325C15.1214 2.83325 13.3197 3.57953 11.9913 4.90791C10.6629 6.2363 9.91664 8.03797 9.91664 9.91659C9.91664 11.7952 10.6629 13.5969 11.9913 14.9253C13.3197 16.2536 15.1214 16.9999 17 16.9999V16.9999Z" stroke="#323232" stroke-width="1.5" stroke-linecap="round" stroke-linejoin="round"/>
</svg>
