<svg width="27" height="27" viewBox="0 0 27 27" fill="none" xmlns="http://www.w3.org/2000/svg">
<path d="M24.75 12.4875V7.7625C24.75 3.825 23.175 2.25 19.2375 2.25H14.5125C10.575 2.25 9 3.825 9 7.7625V9H12.4875C16.425 9 18 10.575 18 14.5125V18H19.2375C23.175 18 24.75 16.425 24.75 12.4875Z" stroke="#323232" stroke-width="1.5" stroke-linecap="round" stroke-linejoin="round"/>
<path d="M18 19.2375V14.5125C18 10.575 16.425 9 12.4875 9H7.7625C3.825 9 2.25 10.575 2.25 14.5125V19.2375C2.25 23.175 3.825 24.75 7.7625 24.75H12.4875C16.425 24.75 18 23.175 18 19.2375Z" stroke="#323232" stroke-width="1.5" stroke-linecap="round" stroke-linejoin="round"/>
<path d="M6.84009 16.8749L9.03384 19.0687L13.4101 14.6812" stroke="#323232" stroke-width="1.5" stroke-linecap="round" stroke-linejoin="round"/>
</svg>
